<svg xmlns="http://www.w3.org/2000/svg" viewBox="0 0 24 24" fill="currentColor">
  <path d="M0 0h24v24H0V0z" fill="none"/>
  <path d="M21.9 8.89l-1.05-4.37c-.22-.9-1-1.52-1.91-1.52H5.05c-.9 0-1.69.62-1.9 1.52L2.1 8.89c-.24 1.02-.02 2.06.62 2.88.08.11.19.19.28.29V19c0 1.1.9 2 2 2h14c1.1 0 2-.9 2-2v-6.94c.09-.09.2-.18.28-.28.64-.82.87-1.87.62-2.89zm-2.99-3.9l1.05 4.37c.1.42.01.84-.25 1.17-.14.18-.34.3-.56.3H19v-6h1.91zm-13.82 0H5v6h-.09c-.22 0-.42-.12-.56-.3-.26-.33-.35-.75-.25-1.17l1.05-4.37zM19 19H5v-6h14v6z"/>
  <path d="M12 17l4-4h-3v-4h-2v4H8z"/>
</svg>