<svg xmlns="http://www.w3.org/2000/svg" viewBox="0 0 24 24" fill="currentColor">
  <path d="M0 0h24v24H0V0z" fill="none"/>
  <path d="M19 3H5c-1.1 0-2 .9-2 2v14c0 1.1.9 2 2 2h14c1.1 0 2-.9 2-2V5c0-1.1-.9-2-2-2zM5 4.99h3.5c.28 0 .5.22.5.5s-.22.5-.5.5H5c-.28 0-.5-.22-.5-.5s.22-.5.5-.5zM5 19V7h3.5c.28 0 .5.22.5.5s-.22.5-.5.5H5v10.99h14V7h-3.5c-.28 0-.5-.22-.5-.5s.22-.5.5-.5H19v12H5z"/>
  <path d="M7.5 9h9c.28 0 .5.22.5.5s-.22.5-.5.5h-9c-.28 0-.5-.22-.5-.5s.22-.5.5-.5zM7.5 12h9c.28 0 .5.22.5.5s-.22.5-.5.5h-9c-.28 0-.5-.22-.5-.5s.22-.5.5-.5zM7.5 15h9c.28 0 .5.22.5.5s-.22.5-.5.5h-9c-.28 0-.5-.22-.5-.5s.22-.5.5-.5z"/>
</svg>